<svg width="142" height="32" viewBox="0 0 142 32" fill="none" xmlns="http://www.w3.org/2000/svg">
<path fill-rule="evenodd" clip-rule="evenodd" d="M22.7379 10.4601L21.2755 19.1034C20.2148 25.414 17.4333 26.999 13.5911 26.999C12.0431 26.999 10.6953 26.8194 9.5483 26.2214C8.17204 26.8197 6.99623 26.999 5.44838 26.999C2.69576 26.9992 0 25.5039 0 21.2269C0.00122093 20.514 0.0685149 19.803 0.200942 19.1036L1.66324 10.4601C1.69754 10.3028 1.78085 10.1617 1.90015 10.059C2.01945 9.95625 2.16802 9.89763 2.32265 9.8923H4.90301C4.96559 9.88841 5.02827 9.89789 5.08721 9.92017C5.14615 9.94245 5.20011 9.97705 5.24577 10.0219C5.29143 10.0667 5.32783 10.1207 5.35274 10.1807C5.37766 10.2407 5.39055 10.3054 5.39064 10.3708V10.4601L3.92844 19.1036C3.82493 19.7162 3.76736 20.3362 3.75627 20.9581C3.75627 23.3504 5.07527 23.4401 6.88161 23.4401H8.11488L10.294 10.4906C10.3228 10.3277 10.4036 10.1798 10.5235 10.0711C10.6433 9.96242 10.7949 9.89938 10.9535 9.8923H13.6197C13.6845 9.88924 13.7492 9.90031 13.8097 9.92478C13.8701 9.94926 13.925 9.98662 13.9709 10.0345C14.0167 10.0823 14.0525 10.1396 14.076 10.2027C14.0994 10.2658 14.11 10.3332 14.107 10.4008V10.4906L11.9282 23.4401H13.1609C15.3976 23.4401 16.831 23.3207 17.5484 19.1036L19.0102 10.4601C19.0453 10.3032 19.1289 10.1627 19.248 10.0601C19.3672 9.95749 19.5153 9.89854 19.6697 9.8923H22.25C22.3126 9.88841 22.3753 9.89789 22.4343 9.92017C22.4932 9.94244 22.5472 9.97704 22.5929 10.0218C22.6386 10.0666 22.675 10.1207 22.6999 10.1807C22.7248 10.2407 22.7378 10.3054 22.7379 10.3708V10.4601ZM39.2797 11.2677L36.8999 25.414C36.8137 25.8622 36.6703 26.0421 35.9823 26.2214C34.1188 26.7002 31.9394 26.999 30.1043 26.999C26.205 26.999 24.37 24.5767 24.37 21.1971C24.3774 20.626 24.4253 20.0562 24.5132 19.4924L24.8859 17.1895C25.7174 12.0155 28.4125 9.68251 33.0291 9.68251C34.9261 9.69579 36.814 9.95705 38.6488 10.4601C39.165 10.6098 39.3086 10.7594 39.3086 11.028C39.3116 11.1091 39.3019 11.1901 39.2797 11.2679V11.2677ZM32.4844 12.9125C30.0186 12.9125 29.1013 14.5877 28.6708 17.1895L28.2984 19.4924C28.1914 20.0638 28.1337 20.6442 28.1263 21.2264C28.1263 22.8718 28.7857 23.7688 30.6494 23.7688C31.6815 23.7688 32.8571 23.679 33.4306 23.5598L35.1796 13.1217C34.6632 13.0026 33.5163 12.9127 32.4842 12.9127L32.4844 12.9125ZM55.3062 16.083L53.6146 26.1318C53.5575 26.4614 53.2707 26.7605 52.955 26.7605H50.2599C49.9728 26.7605 49.8297 26.5212 49.8297 26.2521V26.1321L51.5786 15.7845C51.6436 15.4191 51.682 15.0491 51.6932 14.6777C51.6932 13.7206 51.3205 12.973 49.9156 12.973H48.3096C46.6465 12.973 46.2452 13.7206 45.9011 15.7845L44.1522 26.1321C44.095 26.4617 43.8079 26.7608 43.4927 26.7608H40.7972C40.511 26.7608 40.3673 26.5215 40.3673 26.2524V26.1324L42.1164 15.7848C42.8904 11.2388 44.5252 9.68332 48.8833 9.68332H50.3742C53.6431 9.68332 55.4207 11.8668 55.4207 14.7676C55.4239 15.209 55.3855 15.6497 55.306 16.0832L55.3062 16.083ZM70.1854 10.8488L69.8412 12.7931C69.8119 12.9265 69.7382 13.0448 69.6332 13.127C69.5282 13.2091 69.3986 13.2497 69.2676 13.2416H69.1815C68.264 13.122 67.375 13.0323 65.5114 13.0323C64.164 13.0323 62.6443 13.8397 62.0992 16.9503L61.6121 19.7318C61.5142 20.2235 61.4662 20.7246 61.4687 21.2269C61.4687 23.2607 62.5298 23.6503 63.7046 23.6503C64.9597 23.6659 66.2145 23.5958 67.4609 23.4406H67.5469C67.7764 23.4406 67.9771 23.5608 67.9771 23.7997V23.8893L67.6329 25.8336C67.5469 26.3117 67.4322 26.4912 66.9164 26.6111C66.2279 26.7908 64.9092 26.9997 63.1603 26.9997C59.8914 26.9997 57.6837 24.6669 57.6837 21.2573C57.6917 20.7458 57.7395 20.2359 57.8267 19.7325L58.3145 16.951C59.318 11.2984 62.3574 9.68322 66.0845 9.68322C67.8344 9.68322 69.0667 9.89261 69.6975 10.0721C70.0702 10.1619 70.2133 10.2816 70.2133 10.5805C70.2166 10.671 70.2071 10.7614 70.1852 10.849L70.1854 10.8488ZM78.1838 4.59838L74.5423 26.1318C74.4851 26.4614 74.1983 26.7605 73.8828 26.7605H71.2163C71.1536 26.7605 71.0915 26.7471 71.034 26.7212C70.9764 26.6953 70.9245 26.6573 70.8815 26.6097C70.8385 26.5621 70.8053 26.5058 70.784 26.4443C70.7626 26.3828 70.7536 26.3174 70.7573 26.2521V26.1321L74.399 4.59889C74.4278 4.43605 74.5087 4.28821 74.6284 4.17954C74.7482 4.07087 74.8998 4.0078 75.0584 4.00063H77.7251C77.7862 3.99728 77.8472 4.00737 77.9043 4.03024C77.9614 4.0531 78.0133 4.08824 78.0565 4.13336C78.0998 4.17848 78.1334 4.23258 78.1553 4.29215C78.1772 4.35172 78.1869 4.41543 78.1836 4.47914V4.59899L78.1838 4.59838ZM110.61 10.5202L109.005 20.0603C107.915 26.5804 103.528 26.999 101.292 26.999H101.12C99.5137 26.999 95.6718 26.2811 95.6718 21.4063C95.6775 20.7644 95.735 20.1241 95.8439 19.4922L97.3634 10.5202C97.4207 10.191 97.6783 9.89149 97.9943 9.89149H100.689C100.752 9.8915 100.814 9.90488 100.871 9.93083C100.929 9.95678 100.981 9.99473 101.024 10.0424C101.067 10.09 101.1 10.1463 101.121 10.2078C101.143 10.2693 101.152 10.3347 101.148 10.4V10.5198L99.5711 19.7609C99.4739 20.2933 99.4258 20.8342 99.4272 21.3762C99.4272 23.0807 100.173 23.5894 101.693 23.5894H101.865C103.585 23.5894 104.732 22.8416 105.248 19.7609L106.825 10.5198C106.883 10.1906 107.14 9.89109 107.456 9.89109H110.151C110.214 9.89109 110.276 9.90448 110.333 9.93043C110.391 9.95637 110.443 9.99433 110.486 10.042C110.529 10.0896 110.562 10.1459 110.583 10.2074C110.605 10.2689 110.614 10.3343 110.61 10.3996V10.5194V10.5202ZM141 10.9987L140.713 12.7033C140.656 13.0622 140.455 13.2712 140.169 13.2712H140.053C139.279 13.1516 137.157 12.9122 135.523 12.9122C134.634 12.9122 133.315 13.032 133.315 14.2881C133.315 14.7068 133.603 15.0955 134.176 15.5142L137.53 17.9072C139.251 19.1333 139.653 20.3593 139.653 21.6755C139.653 25.4138 136.727 26.999 133.315 26.999C132.369 26.999 129.903 26.909 128.154 26.4007C127.868 26.311 127.724 26.1316 127.724 25.8622V25.7131L128.039 23.9183C128.07 23.7775 128.147 23.6524 128.257 23.5648C128.368 23.4773 128.504 23.433 128.642 23.4395H128.728C130.075 23.6191 132.456 23.7687 133.315 23.7687C134.721 23.7687 135.782 23.4994 135.782 22.0943C135.782 21.6152 135.523 21.1665 134.836 20.6583L131.337 18.1463C130.247 17.3688 129.473 16.0231 129.473 14.5872C129.473 10.6391 132.771 9.682 135.523 9.682C137.233 9.67533 138.937 9.88624 140.598 10.3101C140.885 10.3999 141 10.5793 141 10.8483V10.9982L141 10.9987ZM128.013 4.59858L124.486 25.4142C124.4 25.8624 124.257 26.0423 123.568 26.2216C121.705 26.7004 119.525 26.9992 117.69 26.9992C113.705 26.9992 111.956 24.4274 111.956 21.1382C111.962 20.5867 112.01 20.0366 112.099 19.4928L112.472 17.1901C113.332 11.7768 115.999 9.68311 120.615 9.68311C121.517 9.69114 122.417 9.76109 123.311 9.89251L124.227 4.5994C124.256 4.43646 124.337 4.28855 124.457 4.17988C124.577 4.0712 124.729 4.00818 124.887 4.00113H127.525C127.59 3.99805 127.654 4.00909 127.715 4.03356C127.776 4.05802 127.831 4.09537 127.876 4.14323C127.922 4.19108 127.958 4.24839 127.982 4.31149C128.005 4.3746 128.016 4.44212 128.013 4.50976V4.5995V4.59858ZM120.071 12.9127C117.604 12.9127 116.716 14.2886 116.257 17.1897L115.883 19.4924C115.778 20.1045 115.72 20.7246 115.712 21.3465C115.712 22.9913 116.372 23.7693 118.235 23.7693C119.268 23.7693 120.443 23.6795 121.016 23.5603L122.765 13.1222C121.872 12.9963 120.972 12.9263 120.071 12.9127ZM83.8798 22.3196L82.9165 18.5812L83.2987 18.1815L85.2013 20.1698L87.0629 18.2309L85.1598 16.2451L85.539 15.8445L89.1245 16.8493L89.1325 20.405L89.1562 20.382L91.6317 22.9547C92.1556 21.884 92.5226 20.7373 92.7205 19.553L93.1508 17.1305C93.2411 16.6172 93.289 16.0967 93.2942 15.5749C93.2942 12.4347 91.4878 9.68352 87.5596 9.68352C83.0578 9.68352 80.3626 11.9267 79.4453 17.1309L79.015 19.5534C78.9341 20.027 78.8956 20.5073 78.9002 20.9883C78.9002 24.1287 80.7354 27 84.6348 27C86.8977 27 88.7035 26.3639 90.0535 25.1057L87.3834 22.3326L83.8798 22.3196Z" fill="#1E6BEB"/>
</svg>
